name ./resultDataOpenSim/trcMotMarkerGrf/sub10/grf-13-06.mot
datacolumns 19
datarows 15
range 1.53600000 1.59200000
endheader

                time	     ground_force_vx	     ground_force_vy	     ground_force_vz	     ground_force_px	     ground_force_py	     ground_force_pz	   l_ground_force_vx	   l_ground_force_vy	   l_ground_force_vz	   l_ground_force_px	   l_ground_force_py	   l_ground_force_pz	     ground_torque_x	     ground_torque_y	     ground_torque_z	   l_ground_torque_x	   l_ground_torque_y	   l_ground_torque_z	
          1.53600000	        -18.66150478	        484.92510718	        -14.00685384	          0.93783421	          0.00000000	          0.01008439	          0.00000000	          0.00000000	          0.00000000	          0.00000000	          0.00000000	          0.00000000	          0.00000000	          1.90659419	          0.00000000	          0.00000000	          0.00000000	          0.00000000	
          1.54000000	        -17.18171624	        487.05042101	        -14.95699058	          0.93780187	          0.00000000	          0.01003898	          0.00000000	          0.00000000	          0.00000000	          0.00000000	          0.00000000	          0.00000000	          0.00000000	          1.99512537	          0.00000000	          0.00000000	          0.00000000	          0.00000000	
          1.54400000	        -16.41132757	        488.98598607	        -15.92715616	          0.93782777	          0.00000000	          0.01002031	          0.00000000	          0.00000000	          0.00000000	          0.00000000	          0.00000000	          0.00000000	          0.00000000	          2.08019516	          0.00000000	          0.00000000	          0.00000000	          0.00000000	
          1.54800000	        -16.08929402	        490.66148476	        -16.77827805	          0.93788388	          0.00000000	          0.01002792	          0.00000000	          0.00000000	          0.00000000	          0.00000000	          0.00000000	          0.00000000	          0.00000000	          2.16012370	          0.00000000	          0.00000000	          0.00000000	          0.00000000	
          1.55200000	        -15.80500406	        492.01571067	        -17.41882182	          0.93791655	          0.00000000	          0.01006214	          0.00000000	          0.00000000	          0.00000000	          0.00000000	          0.00000000	          0.00000000	          0.00000000	          2.23293556	          0.00000000	          0.00000000	          0.00000000	          0.00000000	
          1.55600000	        -15.11847134	        493.02008994	        -17.81223607	          0.93786650	          0.00000000	          0.01012181	          0.00000000	          0.00000000	          0.00000000	          0.00000000	          0.00000000	          0.00000000	          0.00000000	          2.29820794	          0.00000000	          0.00000000	          0.00000000	          0.00000000	
          1.56000000	        -13.68371307	        493.71190597	        -17.98001545	          0.93768383	          0.00000000	          0.01020265	          0.00000000	          0.00000000	          0.00000000	          0.00000000	          0.00000000	          0.00000000	          0.00000000	          2.35801364	          0.00000000	          0.00000000	          0.00000000	          0.00000000	
          1.56400000	        -11.33886975	        494.20926204	        -18.00435218	          0.93734708	          0.00000000	          0.01030055	          0.00000000	          0.00000000	          0.00000000	          0.00000000	          0.00000000	          0.00000000	          0.00000000	          2.41609837	          0.00000000	          0.00000000	          0.00000000	          0.00000000	
          1.56800000	         -8.14266034	        494.69147630	        -18.02151432	          0.93687580	          0.00000000	          0.01041091	          0.00000000	          0.00000000	          0.00000000	          0.00000000	          0.00000000	          0.00000000	          0.00000000	          2.47591446	          0.00000000	          0.00000000	          0.00000000	          0.00000000	
          1.57200000	         -4.35543183	        495.36666283	        -18.19673352	          0.93631852	          0.00000000	          0.01052138	          0.00000000	          0.00000000	          0.00000000	          0.00000000	          0.00000000	          0.00000000	          0.00000000	          2.53906360	          0.00000000	          0.00000000	          0.00000000	          0.00000000	
          1.57600000	         -0.37016709	        496.45028229	        -18.68147117	          0.93573283	          0.00000000	          0.01061198	          0.00000000	          0.00000000	          0.00000000	          0.00000000	          0.00000000	          0.00000000	          0.00000000	          2.60533771	          0.00000000	          0.00000000	          0.00000000	          0.00000000	
          1.58000000	          3.39083410	        498.14741100	        -19.56534160	          0.93518257	          0.00000000	          0.01066439	          0.00000000	          0.00000000	          0.00000000	          0.00000000	          0.00000000	          0.00000000	          0.00000000	          2.67420715	          0.00000000	          0.00000000	          0.00000000	          0.00000000	
          1.58400000	          6.58204543	        500.63000042	        -20.84279436	          0.93472475	          0.00000000	          0.01066459	          0.00000000	          0.00000000	          0.00000000	          0.00000000	          0.00000000	          0.00000000	          0.00000000	          2.74642785	          0.00000000	          0.00000000	          0.00000000	          0.00000000	
          1.58800000	          9.01073796	        504.00647361	        -22.40768631	          0.93439823	          0.00000000	          0.01060654	          0.00000000	          0.00000000	          0.00000000	          0.00000000	          0.00000000	          0.00000000	          0.00000000	          2.82442643	          0.00000000	          0.00000000	          0.00000000	          0.00000000	
          1.59200000	         10.66872508	        508.28975858	        -24.07481873	          0.93422668	          0.00000000	          0.01049118	          0.00000000	          0.00000000	          0.00000000	          0.00000000	          0.00000000	          0.00000000	          0.00000000	          2.91123882	          0.00000000	          0.00000000	          0.00000000	          0.00000000	
